<?xml version="1.0" encoding="UTF-8"?>
<svg xmlns="http://www.w3.org/2000/svg" xmlns:xlink="http://www.w3.org/1999/xlink" width="207pt" height="252pt" viewBox="0 0 207 252">
<defs>
<g>
<g id="glyph-0-0">
<path d="M 0.390625 0 L 0.390625 -8.609375 L 7.21875 -8.609375 L 7.21875 0 Z M 6.140625 -1.078125 L 6.140625 -7.53125 L 1.46875 -7.53125 L 1.46875 -1.078125 Z M 6.140625 -1.078125 "/>
</g>
<g id="glyph-0-1">
<path d="M 3.25 -8.390625 C 4.332031 -8.390625 5.117188 -7.941406 5.609375 -7.046875 C 5.984375 -6.359375 6.171875 -5.410156 6.171875 -4.203125 C 6.171875 -3.066406 6 -2.125 5.65625 -1.375 C 5.164062 -0.300781 4.359375 0.234375 3.234375 0.234375 C 2.234375 0.234375 1.484375 -0.203125 0.984375 -1.078125 C 0.578125 -1.816406 0.375 -2.800781 0.375 -4.03125 C 0.375 -4.976562 0.5 -5.796875 0.75 -6.484375 C 1.207031 -7.753906 2.039062 -8.390625 3.25 -8.390625 Z M 3.234375 -0.734375 C 3.785156 -0.734375 4.222656 -0.972656 4.546875 -1.453125 C 4.867188 -1.941406 5.03125 -2.847656 5.03125 -4.171875 C 5.03125 -5.117188 4.910156 -5.898438 4.671875 -6.515625 C 4.441406 -7.128906 3.988281 -7.4375 3.3125 -7.4375 C 2.6875 -7.4375 2.226562 -7.144531 1.9375 -6.5625 C 1.65625 -5.976562 1.515625 -5.117188 1.515625 -3.984375 C 1.515625 -3.128906 1.609375 -2.441406 1.796875 -1.921875 C 2.078125 -1.128906 2.554688 -0.734375 3.234375 -0.734375 Z M 3.234375 -0.734375 "/>
</g>
<g id="glyph-0-2">
<path d="M 1.15625 -5.9375 L 1.15625 -6.75 C 1.914062 -6.820312 2.441406 -6.945312 2.734375 -7.125 C 3.035156 -7.300781 3.265625 -7.710938 3.421875 -8.359375 L 4.25 -8.359375 L 4.25 0 L 3.125 0 L 3.125 -5.9375 Z M 1.15625 -5.9375 "/>
</g>
<g id="glyph-0-3">
<path d="M 0.375 0 C 0.414062 -0.71875 0.566406 -1.34375 0.828125 -1.875 C 1.085938 -2.414062 1.59375 -2.90625 2.34375 -3.34375 L 3.46875 -4 C 3.96875 -4.289062 4.320312 -4.539062 4.53125 -4.75 C 4.851562 -5.070312 5.015625 -5.441406 5.015625 -5.859375 C 5.015625 -6.347656 4.863281 -6.734375 4.5625 -7.015625 C 4.269531 -7.304688 3.882812 -7.453125 3.40625 -7.453125 C 2.675781 -7.453125 2.175781 -7.179688 1.90625 -6.640625 C 1.75 -6.335938 1.664062 -5.929688 1.65625 -5.421875 L 0.578125 -5.421875 C 0.585938 -6.148438 0.722656 -6.742188 0.984375 -7.203125 C 1.441406 -8.015625 2.25 -8.421875 3.40625 -8.421875 C 4.363281 -8.421875 5.0625 -8.160156 5.5 -7.640625 C 5.945312 -7.117188 6.171875 -6.539062 6.171875 -5.90625 C 6.171875 -5.238281 5.9375 -4.664062 5.46875 -4.1875 C 5.195312 -3.90625 4.707031 -3.566406 4 -3.171875 L 3.1875 -2.734375 C 2.8125 -2.523438 2.515625 -2.320312 2.296875 -2.125 C 1.898438 -1.789062 1.648438 -1.414062 1.546875 -1 L 6.140625 -1 L 6.140625 0 Z M 0.375 0 "/>
</g>
<g id="glyph-0-4">
<path d="M 3.125 0.234375 C 2.125 0.234375 1.398438 -0.0351562 0.953125 -0.578125 C 0.503906 -1.128906 0.28125 -1.796875 0.28125 -2.578125 L 1.390625 -2.578125 C 1.429688 -2.035156 1.53125 -1.640625 1.6875 -1.390625 C 1.96875 -0.953125 2.460938 -0.734375 3.171875 -0.734375 C 3.734375 -0.734375 4.179688 -0.878906 4.515625 -1.171875 C 4.847656 -1.472656 5.015625 -1.859375 5.015625 -2.328125 C 5.015625 -2.898438 4.835938 -3.300781 4.484375 -3.53125 C 4.128906 -3.769531 3.640625 -3.890625 3.015625 -3.890625 C 2.941406 -3.890625 2.867188 -3.882812 2.796875 -3.875 C 2.722656 -3.875 2.648438 -3.875 2.578125 -3.875 L 2.578125 -4.8125 C 2.691406 -4.789062 2.785156 -4.78125 2.859375 -4.78125 C 2.929688 -4.78125 3.007812 -4.78125 3.09375 -4.78125 C 3.488281 -4.78125 3.8125 -4.84375 4.0625 -4.96875 C 4.507812 -5.1875 4.734375 -5.578125 4.734375 -6.140625 C 4.734375 -6.554688 4.582031 -6.875 4.28125 -7.09375 C 3.988281 -7.320312 3.644531 -7.4375 3.25 -7.4375 C 2.550781 -7.4375 2.066406 -7.203125 1.796875 -6.734375 C 1.648438 -6.484375 1.566406 -6.117188 1.546875 -5.640625 L 0.5 -5.640625 C 0.5 -6.265625 0.625 -6.796875 0.875 -7.234375 C 1.300781 -8.015625 2.054688 -8.40625 3.140625 -8.40625 C 3.992188 -8.40625 4.65625 -8.210938 5.125 -7.828125 C 5.59375 -7.453125 5.828125 -6.898438 5.828125 -6.171875 C 5.828125 -5.660156 5.691406 -5.242188 5.421875 -4.921875 C 5.242188 -4.722656 5.019531 -4.566406 4.75 -4.453125 C 5.1875 -4.328125 5.53125 -4.09375 5.78125 -3.75 C 6.03125 -3.40625 6.15625 -2.984375 6.15625 -2.484375 C 6.15625 -1.679688 5.890625 -1.023438 5.359375 -0.515625 C 4.835938 -0.015625 4.09375 0.234375 3.125 0.234375 Z M 3.125 0.234375 "/>
</g>
</g>
</defs>
<path fill="none" stroke-width="0.75" stroke-linecap="round" stroke-linejoin="round" stroke="rgb(0%, 0%, 0%)" stroke-opacity="1" stroke-miterlimit="10" d="M 97.261719 156.898438 C 97.261719 158.699219 94.558594 158.699219 94.558594 156.898438 C 94.558594 155.097656 97.261719 155.097656 97.261719 156.898438 "/>
<path fill="none" stroke-width="0.75" stroke-linecap="round" stroke-linejoin="round" stroke="rgb(0%, 0%, 0%)" stroke-opacity="1" stroke-miterlimit="10" d="M 101.984375 160.042969 C 101.984375 161.839844 99.28125 161.839844 99.28125 160.042969 C 99.28125 158.242188 101.984375 158.242188 101.984375 160.042969 "/>
<path fill="none" stroke-width="0.75" stroke-linecap="round" stroke-linejoin="round" stroke="rgb(0%, 0%, 0%)" stroke-opacity="1" stroke-miterlimit="10" d="M 105.261719 126.363281 C 105.261719 128.164062 102.5625 128.164062 102.5625 126.363281 C 102.5625 124.5625 105.261719 124.5625 105.261719 126.363281 "/>
<path fill="none" stroke-width="0.75" stroke-linecap="round" stroke-linejoin="round" stroke="rgb(0%, 0%, 0%)" stroke-opacity="1" stroke-miterlimit="10" d="M 94.875 130.738281 C 94.875 132.539062 92.175781 132.539062 92.175781 130.738281 C 92.175781 128.9375 94.875 128.9375 94.875 130.738281 "/>
<path fill="none" stroke-width="0.75" stroke-linecap="round" stroke-linejoin="round" stroke="rgb(0%, 0%, 0%)" stroke-opacity="1" stroke-miterlimit="10" d="M 89.167969 151.789062 C 89.167969 153.589844 86.464844 153.589844 86.464844 151.789062 C 86.464844 149.988281 89.167969 149.988281 89.167969 151.789062 "/>
<path fill="none" stroke-width="0.75" stroke-linecap="round" stroke-linejoin="round" stroke="rgb(0%, 0%, 0%)" stroke-opacity="1" stroke-miterlimit="10" d="M 126.511719 137.402344 C 126.511719 139.203125 123.8125 139.203125 123.8125 137.402344 C 123.8125 135.601562 126.511719 135.601562 126.511719 137.402344 "/>
<path fill="none" stroke-width="0.75" stroke-linecap="round" stroke-linejoin="round" stroke="rgb(0%, 0%, 0%)" stroke-opacity="1" stroke-miterlimit="10" d="M 103.691406 165.339844 C 103.691406 167.136719 100.992188 167.136719 100.992188 165.339844 C 100.992188 163.539062 103.691406 163.539062 103.691406 165.339844 "/>
<path fill="none" stroke-width="0.75" stroke-linecap="round" stroke-linejoin="round" stroke="rgb(0%, 0%, 0%)" stroke-opacity="1" stroke-miterlimit="10" d="M 75.734375 88.097656 C 75.734375 89.898438 73.035156 89.898438 73.035156 88.097656 C 73.035156 86.296875 75.734375 86.296875 75.734375 88.097656 "/>
<path fill="none" stroke-width="0.75" stroke-linecap="round" stroke-linejoin="round" stroke="rgb(0%, 0%, 0%)" stroke-opacity="1" stroke-miterlimit="10" d="M 92.175781 158.660156 C 92.175781 160.460938 89.476562 160.460938 89.476562 158.660156 C 89.476562 156.859375 92.175781 156.859375 92.175781 158.660156 "/>
<path fill="none" stroke-width="1" stroke-linecap="round" stroke-linejoin="round" stroke="rgb(66.27451%, 66.27451%, 66.27451%)" stroke-opacity="1" stroke-dasharray="1 3" stroke-miterlimit="10" d="M 63.398438 174.132812 L 172.398438 63.464844 "/>
<path fill="none" stroke-width="1" stroke-linecap="round" stroke-linejoin="round" stroke="rgb(0%, 0%, 0%)" stroke-opacity="1" stroke-miterlimit="10" d="M 63.398438 178.558594 L 172.398438 178.558594 "/>
<path fill="none" stroke-width="1" stroke-linecap="round" stroke-linejoin="round" stroke="rgb(0%, 0%, 0%)" stroke-opacity="1" stroke-miterlimit="10" d="M 63.398438 178.558594 L 63.398438 181.441406 "/>
<path fill="none" stroke-width="1" stroke-linecap="round" stroke-linejoin="round" stroke="rgb(0%, 0%, 0%)" stroke-opacity="1" stroke-miterlimit="10" d="M 99.734375 178.558594 L 99.734375 181.441406 "/>
<path fill="none" stroke-width="1" stroke-linecap="round" stroke-linejoin="round" stroke="rgb(0%, 0%, 0%)" stroke-opacity="1" stroke-miterlimit="10" d="M 136.066406 178.558594 L 136.066406 181.441406 "/>
<path fill="none" stroke-width="1" stroke-linecap="round" stroke-linejoin="round" stroke="rgb(0%, 0%, 0%)" stroke-opacity="1" stroke-miterlimit="10" d="M 172.398438 178.558594 L 172.398438 181.441406 "/>
<g fill="rgb(0%, 0%, 0%)" fill-opacity="1">
<use xlink:href="#glyph-0-1" x="59.898438" y="203.720703"/>
</g>
<g fill="rgb(0%, 0%, 0%)" fill-opacity="1">
<use xlink:href="#glyph-0-2" x="89.234375" y="203.720703"/>
<use xlink:href="#glyph-0-1" x="96.234375" y="203.720703"/>
<use xlink:href="#glyph-0-1" x="103.234375" y="203.720703"/>
</g>
<g fill="rgb(0%, 0%, 0%)" fill-opacity="1">
<use xlink:href="#glyph-0-3" x="125.566406" y="203.720703"/>
<use xlink:href="#glyph-0-1" x="132.566406" y="203.720703"/>
<use xlink:href="#glyph-0-1" x="139.566406" y="203.720703"/>
</g>
<g fill="rgb(0%, 0%, 0%)" fill-opacity="1">
<use xlink:href="#glyph-0-4" x="161.898438" y="203.720703"/>
<use xlink:href="#glyph-0-1" x="168.898438" y="203.720703"/>
<use xlink:href="#glyph-0-1" x="175.898438" y="203.720703"/>
</g>
<path fill="none" stroke-width="1" stroke-linecap="round" stroke-linejoin="round" stroke="rgb(0%, 0%, 0%)" stroke-opacity="1" stroke-miterlimit="10" d="M 59.039062 174.132812 L 59.039062 63.464844 "/>
<path fill="none" stroke-width="1" stroke-linecap="round" stroke-linejoin="round" stroke="rgb(0%, 0%, 0%)" stroke-opacity="1" stroke-miterlimit="10" d="M 59.039062 174.132812 L 56.160156 174.132812 "/>
<path fill="none" stroke-width="1" stroke-linecap="round" stroke-linejoin="round" stroke="rgb(0%, 0%, 0%)" stroke-opacity="1" stroke-miterlimit="10" d="M 59.039062 137.246094 L 56.160156 137.246094 "/>
<path fill="none" stroke-width="1" stroke-linecap="round" stroke-linejoin="round" stroke="rgb(0%, 0%, 0%)" stroke-opacity="1" stroke-miterlimit="10" d="M 59.039062 100.355469 L 56.160156 100.355469 "/>
<path fill="none" stroke-width="1" stroke-linecap="round" stroke-linejoin="round" stroke="rgb(0%, 0%, 0%)" stroke-opacity="1" stroke-miterlimit="10" d="M 59.039062 63.464844 L 56.160156 63.464844 "/>
<g fill="rgb(0%, 0%, 0%)" fill-opacity="1">
<use xlink:href="#glyph-0-1" x="37.640625" y="177.873047"/>
</g>
<g fill="rgb(0%, 0%, 0%)" fill-opacity="1">
<use xlink:href="#glyph-0-2" x="23.640625" y="140.986328"/>
<use xlink:href="#glyph-0-1" x="30.640625" y="140.986328"/>
<use xlink:href="#glyph-0-1" x="37.640625" y="140.986328"/>
</g>
<g fill="rgb(0%, 0%, 0%)" fill-opacity="1">
<use xlink:href="#glyph-0-3" x="23.640625" y="104.095703"/>
<use xlink:href="#glyph-0-1" x="30.640625" y="104.095703"/>
<use xlink:href="#glyph-0-1" x="37.640625" y="104.095703"/>
</g>
<g fill="rgb(0%, 0%, 0%)" fill-opacity="1">
<use xlink:href="#glyph-0-4" x="23.640625" y="67.205078"/>
<use xlink:href="#glyph-0-1" x="30.640625" y="67.205078"/>
<use xlink:href="#glyph-0-1" x="37.640625" y="67.205078"/>
</g>
</svg>
