<?xml version="1.0" encoding="UTF-8"?>
<svg xmlns="http://www.w3.org/2000/svg" xmlns:xlink="http://www.w3.org/1999/xlink" width="216pt" height="252pt" viewBox="0 0 216 252">
<defs>
<g>
<g id="glyph-0-0">
<path d="M 0 -1.5 L -9 -1.5 L -9 -10.5 L 0 -10.5 Z M -0.75 -2.25 L -0.75 -9.75 L -8.25 -9.75 L -8.25 -2.25 Z M -0.75 -2.25 "/>
</g>
<g id="glyph-0-1">
<path d="M -5.578125 -5.890625 L -5.578125 -3.53125 L 0 -3.53125 L 0 -2.421875 L -5.578125 -2.421875 L -5.578125 -0.0625 L -6.546875 -0.0625 L -6.546875 -5.890625 Z M -5.578125 -5.890625 "/>
</g>
<g id="glyph-1-0">
<path d="M 0 -0.265625 L -6.03125 -0.265625 L -6.03125 -5.0625 L 0 -5.0625 Z M -0.75 -4.296875 L -5.28125 -4.296875 L -5.28125 -1.03125 L -0.75 -1.03125 Z M -0.75 -4.296875 "/>
</g>
<g id="glyph-1-1">
<path d="M -2.140625 -1.015625 C -1.671875 -1.015625 -1.273438 -1.113281 -0.953125 -1.3125 C -0.640625 -1.507812 -0.484375 -1.828125 -0.484375 -2.265625 C -0.484375 -2.609375 -0.628906 -2.890625 -0.921875 -3.109375 C -1.222656 -3.328125 -1.648438 -3.4375 -2.203125 -3.4375 C -2.753906 -3.4375 -3.160156 -3.320312 -3.421875 -3.09375 C -3.691406 -2.875 -3.828125 -2.597656 -3.828125 -2.265625 C -3.828125 -1.890625 -3.679688 -1.585938 -3.390625 -1.359375 C -3.109375 -1.128906 -2.691406 -1.015625 -2.140625 -1.015625 Z M -4.46875 -2.125 C -4.46875 -2.457031 -4.398438 -2.738281 -4.265625 -2.96875 C -4.179688 -3.101562 -4.035156 -3.253906 -3.828125 -3.421875 L -6.046875 -3.421875 L -6.046875 -4.125 L 0 -4.125 L 0 -3.453125 L -0.609375 -3.453125 C -0.335938 -3.285156 -0.140625 -3.082031 -0.015625 -2.84375 C 0.0976562 -2.613281 0.15625 -2.347656 0.15625 -2.046875 C 0.15625 -1.554688 -0.046875 -1.128906 -0.453125 -0.765625 C -0.867188 -0.410156 -1.421875 -0.234375 -2.109375 -0.234375 C -2.742188 -0.234375 -3.296875 -0.394531 -3.765625 -0.71875 C -4.234375 -1.039062 -4.46875 -1.507812 -4.46875 -2.125 Z M -4.46875 -2.125 "/>
</g>
<g id="glyph-1-2">
<path d="M -4.5 -2.375 C -4.5 -2.6875 -4.425781 -2.988281 -4.28125 -3.28125 C -4.132812 -3.570312 -3.941406 -3.796875 -3.703125 -3.953125 C -3.484375 -4.097656 -3.226562 -4.195312 -2.9375 -4.25 C -2.726562 -4.289062 -2.40625 -4.3125 -1.96875 -4.3125 L -1.96875 -1.09375 C -1.519531 -1.101562 -1.160156 -1.207031 -0.890625 -1.40625 C -0.617188 -1.601562 -0.484375 -1.90625 -0.484375 -2.3125 C -0.484375 -2.695312 -0.609375 -3.007812 -0.859375 -3.25 C -1.015625 -3.375 -1.1875 -3.460938 -1.375 -3.515625 L -1.375 -4.25 C -1.21875 -4.226562 -1.039062 -4.160156 -0.84375 -4.046875 C -0.644531 -3.941406 -0.484375 -3.820312 -0.359375 -3.6875 C -0.140625 -3.46875 0.0078125 -3.191406 0.09375 -2.859375 C 0.132812 -2.679688 0.15625 -2.476562 0.15625 -2.25 C 0.15625 -1.707031 -0.0390625 -1.242188 -0.4375 -0.859375 C -0.832031 -0.484375 -1.390625 -0.296875 -2.109375 -0.296875 C -2.816406 -0.296875 -3.390625 -0.484375 -3.828125 -0.859375 C -4.273438 -1.242188 -4.5 -1.75 -4.5 -2.375 Z M -2.546875 -3.546875 C -2.867188 -3.515625 -3.125 -3.445312 -3.3125 -3.34375 C -3.664062 -3.132812 -3.84375 -2.796875 -3.84375 -2.328125 C -3.84375 -1.984375 -3.71875 -1.695312 -3.46875 -1.46875 C -3.226562 -1.238281 -2.921875 -1.117188 -2.546875 -1.109375 Z M -4.5 -2.296875 Z M -4.5 -2.296875 "/>
</g>
<g id="glyph-1-3">
<path d="M -4.515625 -2.234375 C -4.515625 -2.734375 -4.394531 -3.132812 -4.15625 -3.4375 C -3.914062 -3.75 -3.503906 -3.9375 -2.921875 -4 L -2.921875 -3.28125 C -3.191406 -3.238281 -3.414062 -3.140625 -3.59375 -2.984375 C -3.769531 -2.828125 -3.859375 -2.578125 -3.859375 -2.234375 C -3.859375 -1.765625 -3.628906 -1.429688 -3.171875 -1.234375 C -2.867188 -1.097656 -2.5 -1.03125 -2.0625 -1.03125 C -1.625 -1.03125 -1.253906 -1.125 -0.953125 -1.3125 C -0.648438 -1.5 -0.5 -1.789062 -0.5 -2.1875 C -0.5 -2.488281 -0.59375 -2.726562 -0.78125 -2.90625 C -0.96875 -3.09375 -1.226562 -3.21875 -1.5625 -3.28125 L -1.5625 -4 C -0.976562 -3.925781 -0.550781 -3.722656 -0.28125 -3.390625 C -0.0078125 -3.054688 0.125 -2.632812 0.125 -2.125 C 0.125 -1.550781 -0.0820312 -1.09375 -0.5 -0.75 C -0.925781 -0.40625 -1.453125 -0.234375 -2.078125 -0.234375 C -2.847656 -0.234375 -3.445312 -0.421875 -3.875 -0.796875 C -4.300781 -1.171875 -4.515625 -1.648438 -4.515625 -2.234375 Z M -4.5 -2.125 Z M -4.5 -2.125 "/>
</g>
<g id="glyph-1-4">
<path d="M -1.171875 -1.109375 C -0.953125 -1.109375 -0.78125 -1.1875 -0.65625 -1.34375 C -0.539062 -1.5 -0.484375 -1.679688 -0.484375 -1.890625 C -0.484375 -2.148438 -0.539062 -2.40625 -0.65625 -2.65625 C -0.851562 -3.0625 -1.179688 -3.265625 -1.640625 -3.265625 L -2.234375 -3.265625 C -2.179688 -3.171875 -2.132812 -3.050781 -2.09375 -2.90625 C -2.050781 -2.769531 -2.023438 -2.632812 -2.015625 -2.5 L -1.953125 -2.046875 C -1.921875 -1.785156 -1.863281 -1.585938 -1.78125 -1.453125 C -1.65625 -1.222656 -1.453125 -1.109375 -1.171875 -1.109375 Z M -2.65625 -2.890625 C -2.6875 -3.066406 -2.757812 -3.179688 -2.875 -3.234375 C -2.9375 -3.265625 -3.03125 -3.28125 -3.15625 -3.28125 C -3.40625 -3.28125 -3.585938 -3.191406 -3.703125 -3.015625 C -3.816406 -2.835938 -3.875 -2.582031 -3.875 -2.25 C -3.875 -1.863281 -3.769531 -1.585938 -3.5625 -1.421875 C -3.445312 -1.335938 -3.273438 -1.28125 -3.046875 -1.25 L -3.046875 -0.5625 C -3.585938 -0.570312 -3.960938 -0.742188 -4.171875 -1.078125 C -4.390625 -1.421875 -4.5 -1.816406 -4.5 -2.265625 C -4.5 -2.785156 -4.398438 -3.207031 -4.203125 -3.53125 C -4.003906 -3.84375 -3.695312 -4 -3.28125 -4 L -0.75 -4 C -0.675781 -4 -0.613281 -4.015625 -0.5625 -4.046875 C -0.519531 -4.078125 -0.5 -4.144531 -0.5 -4.25 C -0.5 -4.28125 -0.5 -4.316406 -0.5 -4.359375 C -0.507812 -4.398438 -0.519531 -4.445312 -0.53125 -4.5 L 0.015625 -4.5 C 0.046875 -4.382812 0.0664062 -4.296875 0.078125 -4.234375 C 0.0859375 -4.171875 0.09375 -4.085938 0.09375 -3.984375 C 0.09375 -3.734375 0.00390625 -3.550781 -0.171875 -3.4375 C -0.265625 -3.375 -0.398438 -3.328125 -0.578125 -3.296875 C -0.378906 -3.148438 -0.207031 -2.9375 -0.0625 -2.65625 C 0.0703125 -2.375 0.140625 -2.0625 0.140625 -1.71875 C 0.140625 -1.3125 0.0195312 -0.976562 -0.21875 -0.71875 C -0.46875 -0.46875 -0.78125 -0.34375 -1.15625 -0.34375 C -1.5625 -0.34375 -1.875 -0.46875 -2.09375 -0.71875 C -2.320312 -0.96875 -2.460938 -1.300781 -2.515625 -1.71875 Z M -4.5 -2.28125 Z M -4.5 -2.28125 "/>
</g>
<g id="glyph-1-5">
<path d="M -4.390625 -3.28125 L -4.390625 -4.109375 C -4.109375 -4.003906 -3.46875 -3.769531 -2.46875 -3.40625 C -1.707031 -3.144531 -1.09375 -2.921875 -0.625 -2.734375 C 0.496094 -2.304688 1.179688 -2.003906 1.421875 -1.828125 C 1.671875 -1.660156 1.796875 -1.363281 1.796875 -0.9375 C 1.796875 -0.832031 1.789062 -0.75 1.78125 -0.6875 C 1.78125 -0.632812 1.769531 -0.566406 1.75 -0.484375 L 1.078125 -0.484375 C 1.109375 -0.609375 1.128906 -0.695312 1.140625 -0.75 C 1.148438 -0.8125 1.15625 -0.867188 1.15625 -0.921875 C 1.15625 -1.054688 1.128906 -1.15625 1.078125 -1.21875 C 1.035156 -1.28125 0.984375 -1.332031 0.921875 -1.375 C 0.890625 -1.394531 0.773438 -1.445312 0.578125 -1.53125 C 0.378906 -1.613281 0.226562 -1.675781 0.125 -1.71875 L -4.390625 -0.09375 L -4.390625 -0.921875 L -0.8125 -2.109375 Z M -4.5 -2.09375 Z M -4.5 -2.09375 "/>
</g>
<g id="glyph-2-0">
<path d="M 0 -0.390625 L -8.609375 -0.390625 L -8.609375 -7.21875 L 0 -7.21875 Z M -1.078125 -6.140625 L -7.53125 -6.140625 L -7.53125 -1.46875 L -1.078125 -1.46875 Z M -1.078125 -6.140625 "/>
</g>
<g id="glyph-2-1">
</g>
<g id="glyph-2-2">
<path d="M -6.28125 -0.78125 L -6.28125 -1.8125 L -5.390625 -1.8125 C -5.691406 -2.0625 -5.914062 -2.289062 -6.0625 -2.5 C -6.300781 -2.84375 -6.421875 -3.238281 -6.421875 -3.6875 C -6.421875 -4.1875 -6.296875 -4.585938 -6.046875 -4.890625 C -5.910156 -5.054688 -5.703125 -5.210938 -5.421875 -5.359375 C -5.765625 -5.585938 -6.015625 -5.859375 -6.171875 -6.171875 C -6.335938 -6.492188 -6.421875 -6.851562 -6.421875 -7.25 C -6.421875 -8.09375 -6.113281 -8.664062 -5.5 -8.96875 C -5.175781 -9.132812 -4.734375 -9.21875 -4.171875 -9.21875 L 0 -9.21875 L 0 -8.125 L -4.359375 -8.125 C -4.773438 -8.125 -5.0625 -8.019531 -5.21875 -7.8125 C -5.375 -7.601562 -5.453125 -7.347656 -5.453125 -7.046875 C -5.453125 -6.628906 -5.3125 -6.269531 -5.03125 -5.96875 C -4.757812 -5.675781 -4.300781 -5.53125 -3.65625 -5.53125 L 0 -5.53125 L 0 -4.453125 L -4.09375 -4.453125 C -4.519531 -4.453125 -4.832031 -4.398438 -5.03125 -4.296875 C -5.320312 -4.140625 -5.46875 -3.84375 -5.46875 -3.40625 C -5.46875 -3.007812 -5.3125 -2.644531 -5 -2.3125 C -4.695312 -1.988281 -4.140625 -1.828125 -3.328125 -1.828125 L 0 -1.828125 L 0 -0.78125 Z M -6.28125 -0.78125 "/>
</g>
<g id="glyph-2-3">
<path d="M -1.96875 -1.40625 C -1.613281 -1.4375 -1.34375 -1.523438 -1.15625 -1.671875 C -0.820312 -1.929688 -0.65625 -2.390625 -0.65625 -3.046875 C -0.65625 -3.441406 -0.738281 -3.785156 -0.90625 -4.078125 C -1.070312 -4.378906 -1.332031 -4.53125 -1.6875 -4.53125 C -1.957031 -4.53125 -2.164062 -4.410156 -2.3125 -4.171875 C -2.394531 -4.015625 -2.492188 -3.710938 -2.609375 -3.265625 L -2.8125 -2.421875 C -2.945312 -1.890625 -3.097656 -1.5 -3.265625 -1.25 C -3.546875 -0.789062 -3.941406 -0.5625 -4.453125 -0.5625 C -5.046875 -0.5625 -5.523438 -0.773438 -5.890625 -1.203125 C -6.253906 -1.628906 -6.4375 -2.207031 -6.4375 -2.9375 C -6.4375 -3.875 -6.160156 -4.550781 -5.609375 -4.96875 C -5.253906 -5.238281 -4.875 -5.367188 -4.46875 -5.359375 L -4.46875 -4.359375 C -4.707031 -4.335938 -4.925781 -4.253906 -5.125 -4.109375 C -5.394531 -3.867188 -5.53125 -3.445312 -5.53125 -2.84375 C -5.53125 -2.445312 -5.453125 -2.144531 -5.296875 -1.9375 C -5.148438 -1.738281 -4.953125 -1.640625 -4.703125 -1.640625 C -4.429688 -1.640625 -4.210938 -1.773438 -4.046875 -2.046875 C -3.953125 -2.203125 -3.867188 -2.429688 -3.796875 -2.734375 L -3.625 -3.421875 C -3.4375 -4.179688 -3.257812 -4.691406 -3.09375 -4.953125 C -2.820312 -5.359375 -2.394531 -5.5625 -1.8125 -5.5625 C -1.257812 -5.5625 -0.78125 -5.347656 -0.375 -4.921875 C 0.0273438 -4.503906 0.234375 -3.863281 0.234375 -3 C 0.234375 -2.0625 0.0234375 -1.394531 -0.390625 -1 C -0.816406 -0.613281 -1.34375 -0.410156 -1.96875 -0.390625 Z M -6.421875 -2.953125 Z M -6.421875 -2.953125 "/>
</g>
<g id="glyph-3-0">
<path d="M 2.65625 -0.75 L -10.578125 -0.75 L -10.578125 -8.25 L 2.65625 -8.25 Z M 1.8125 -1.59375 L 1.8125 -7.40625 L -9.734375 -7.40625 L -9.734375 -1.59375 Z M 1.8125 -1.59375 "/>
</g>
<g id="glyph-3-1">
<path d="M -11.375 -4.65625 C -10.257812 -4 -9.148438 -3.507812 -8.046875 -3.1875 C -6.953125 -2.875 -5.835938 -2.71875 -4.703125 -2.71875 C -3.578125 -2.71875 -2.460938 -2.875 -1.359375 -3.1875 C -0.253906 -3.507812 0.859375 -4 1.984375 -4.65625 L 1.984375 -3.484375 C 0.828125 -2.742188 -0.300781 -2.191406 -1.40625 -1.828125 C -2.507812 -1.472656 -3.609375 -1.296875 -4.703125 -1.296875 C -5.796875 -1.296875 -6.894531 -1.472656 -8 -1.828125 C -9.101562 -2.191406 -10.226562 -2.742188 -11.375 -3.484375 Z M -11.375 -4.65625 "/>
</g>
<g id="glyph-3-2">
<path d="M -11.375 -1.203125 L -11.375 -2.375 C -10.226562 -3.101562 -9.101562 -3.648438 -8 -4.015625 C -6.894531 -4.378906 -5.796875 -4.5625 -4.703125 -4.5625 C -3.609375 -4.5625 -2.507812 -4.378906 -1.40625 -4.015625 C -0.300781 -3.648438 0.828125 -3.101562 1.984375 -2.375 L 1.984375 -1.203125 C 0.859375 -1.847656 -0.253906 -2.332031 -1.359375 -2.65625 C -2.460938 -2.976562 -3.578125 -3.140625 -4.703125 -3.140625 C -5.835938 -3.140625 -6.953125 -2.976562 -8.046875 -2.65625 C -9.148438 -2.332031 -10.257812 -1.847656 -11.375 -1.203125 Z M -11.375 -1.203125 "/>
</g>
<g id="glyph-4-0">
<path d="M 0.28125 -0.28125 L -5.8125 -6.375 L -0.984375 -11.203125 L 5.109375 -5.109375 Z M 3.578125 -5.109375 L -0.984375 -9.671875 L -4.296875 -6.359375 L 0.265625 -1.796875 Z M 3.578125 -5.109375 "/>
</g>
<g id="glyph-4-1">
<path d="M -4.375 -5.84375 C -4.675781 -6.164062 -4.851562 -6.445312 -4.90625 -6.6875 C -4.976562 -7.113281 -4.765625 -7.578125 -4.265625 -8.078125 C -4.210938 -8.128906 -4.160156 -8.175781 -4.109375 -8.21875 C -4.066406 -8.269531 -4.007812 -8.320312 -3.9375 -8.375 L -3.265625 -7.703125 C -3.347656 -7.617188 -3.40625 -7.5625 -3.4375 -7.53125 C -3.46875 -7.5 -3.5 -7.46875 -3.53125 -7.4375 C -3.757812 -7.207031 -3.835938 -7.015625 -3.765625 -6.859375 C -3.691406 -6.703125 -3.414062 -6.382812 -2.9375 -5.90625 L -2.203125 -6.640625 L -1.609375 -6.046875 L -2.359375 -5.296875 L 1.46875 -1.46875 L 0.734375 -0.734375 L -3.09375 -4.5625 L -3.703125 -3.953125 L -4.296875 -4.546875 L -3.6875 -5.15625 Z M -4.375 -5.84375 "/>
</g>
<g id="glyph-4-2">
<path d="M -0.078125 -2.296875 C 0.140625 -2.078125 0.390625 -1.984375 0.671875 -2.015625 C 0.960938 -2.054688 1.210938 -2.179688 1.421875 -2.390625 C 1.691406 -2.660156 1.890625 -2.972656 2.015625 -3.328125 C 2.222656 -3.953125 2.097656 -4.492188 1.640625 -4.953125 L 1.046875 -5.546875 C 1.003906 -5.398438 0.929688 -5.238281 0.828125 -5.0625 C 0.722656 -4.882812 0.609375 -4.710938 0.484375 -4.546875 L 0.09375 -4.0625 C -0.132812 -3.75 -0.28125 -3.476562 -0.34375 -3.25 C -0.445312 -2.894531 -0.359375 -2.578125 -0.078125 -2.296875 Z M 0.234375 -5.609375 C 0.390625 -5.804688 0.429688 -5.992188 0.359375 -6.171875 C 0.328125 -6.265625 0.25 -6.375 0.125 -6.5 C -0.121094 -6.75 -0.394531 -6.835938 -0.6875 -6.765625 C -0.988281 -6.703125 -1.300781 -6.507812 -1.625 -6.1875 C -2.019531 -5.789062 -2.195312 -5.414062 -2.15625 -5.0625 C -2.132812 -4.832031 -2.019531 -4.59375 -1.8125 -4.34375 L -2.515625 -3.640625 C -3.054688 -4.203125 -3.257812 -4.757812 -3.125 -5.3125 C -3 -5.875 -2.710938 -6.378906 -2.265625 -6.828125 C -1.734375 -7.359375 -1.207031 -7.6875 -0.6875 -7.8125 C -0.15625 -7.925781 0.316406 -7.773438 0.734375 -7.359375 L 3.28125 -4.8125 C 3.351562 -4.738281 3.425781 -4.691406 3.5 -4.671875 C 3.582031 -4.660156 3.675781 -4.707031 3.78125 -4.8125 C 3.8125 -4.84375 3.847656 -4.878906 3.890625 -4.921875 C 3.929688 -4.960938 3.972656 -5.015625 4.015625 -5.078125 L 4.5625 -4.53125 C 4.46875 -4.375 4.394531 -4.257812 4.34375 -4.1875 C 4.289062 -4.113281 4.210938 -4.023438 4.109375 -3.921875 C 3.859375 -3.671875 3.585938 -3.578125 3.296875 -3.640625 C 3.128906 -3.679688 2.953125 -3.773438 2.765625 -3.921875 C 2.804688 -3.566406 2.753906 -3.171875 2.609375 -2.734375 C 2.472656 -2.304688 2.238281 -1.925781 1.90625 -1.59375 C 1.488281 -1.175781 1.023438 -0.960938 0.515625 -0.953125 C 0.00390625 -0.941406 -0.4375 -1.125 -0.8125 -1.5 C -1.226562 -1.914062 -1.421875 -2.363281 -1.390625 -2.84375 C -1.367188 -3.332031 -1.175781 -3.8125 -0.8125 -4.28125 Z M -2.234375 -6.859375 Z M -2.234375 -6.859375 "/>
</g>
<g id="glyph-4-3">
<path d="M -0.390625 -2.390625 C -0.117188 -2.160156 0.132812 -2.03125 0.375 -2 C 0.78125 -1.945312 1.21875 -2.15625 1.6875 -2.625 C 1.96875 -2.90625 2.15625 -3.207031 2.25 -3.53125 C 2.34375 -3.851562 2.265625 -4.140625 2.015625 -4.390625 C 1.816406 -4.585938 1.582031 -4.65625 1.3125 -4.59375 C 1.144531 -4.53125 0.863281 -4.382812 0.46875 -4.15625 L -0.265625 -3.703125 C -0.734375 -3.421875 -1.117188 -3.253906 -1.421875 -3.203125 C -1.953125 -3.066406 -2.398438 -3.179688 -2.765625 -3.546875 C -3.179688 -3.960938 -3.363281 -4.445312 -3.3125 -5 C -3.269531 -5.5625 -2.988281 -6.101562 -2.46875 -6.625 C -1.800781 -7.289062 -1.128906 -7.578125 -0.453125 -7.484375 C -0.015625 -7.421875 0.347656 -7.242188 0.640625 -6.953125 L -0.078125 -6.234375 C -0.253906 -6.390625 -0.46875 -6.488281 -0.71875 -6.53125 C -1.070312 -6.550781 -1.460938 -6.347656 -1.890625 -5.921875 C -2.171875 -5.640625 -2.332031 -5.375 -2.375 -5.125 C -2.414062 -4.875 -2.347656 -4.660156 -2.171875 -4.484375 C -1.972656 -4.285156 -1.71875 -4.226562 -1.40625 -4.3125 C -1.238281 -4.351562 -1.019531 -4.457031 -0.75 -4.625 L -0.140625 -4.984375 C 0.523438 -5.378906 1.007812 -5.613281 1.3125 -5.6875 C 1.789062 -5.789062 2.238281 -5.632812 2.65625 -5.21875 C 3.039062 -4.832031 3.226562 -4.34375 3.21875 -3.75 C 3.207031 -3.15625 2.898438 -2.554688 2.296875 -1.953125 C 1.628906 -1.285156 1.003906 -0.960938 0.421875 -0.984375 C -0.148438 -1.015625 -0.660156 -1.242188 -1.109375 -1.671875 Z M -2.453125 -6.640625 Z M -2.453125 -6.640625 "/>
</g>
<g id="glyph-4-4">
<path d="M -4.96875 -6.375 L -4.21875 -7.125 L -2.984375 -5.890625 L -2.28125 -6.59375 L -1.671875 -5.984375 L -2.375 -5.28125 L 0.53125 -2.375 C 0.675781 -2.226562 0.828125 -2.179688 0.984375 -2.234375 C 1.066406 -2.253906 1.179688 -2.335938 1.328125 -2.484375 C 1.359375 -2.515625 1.394531 -2.550781 1.4375 -2.59375 C 1.476562 -2.632812 1.523438 -2.679688 1.578125 -2.734375 L 2.15625 -2.15625 C 2.09375 -2.050781 2.019531 -1.945312 1.9375 -1.84375 C 1.851562 -1.738281 1.757812 -1.632812 1.65625 -1.53125 C 1.3125 -1.1875 0.988281 -1.039062 0.6875 -1.09375 C 0.382812 -1.144531 0.0898438 -1.3125 -0.1875 -1.59375 L -3.125 -4.53125 L -3.734375 -3.921875 L -4.34375 -4.53125 L -3.734375 -5.140625 Z M -4.96875 -6.375 "/>
</g>
<g id="glyph-4-5">
<path d="M -5.53125 -6.65625 L -4.78125 -7.40625 L 1.3125 -1.3125 L 0.5625 -0.5625 Z M -5.53125 -6.65625 "/>
</g>
<g id="glyph-4-6">
<path d="M 1.828125 -2.796875 C 2.316406 -3.285156 2.46875 -3.8125 2.28125 -4.375 C 2.09375 -4.9375 1.773438 -5.441406 1.328125 -5.890625 C 0.898438 -6.316406 0.492188 -6.585938 0.109375 -6.703125 C -0.515625 -6.890625 -1.082031 -6.726562 -1.59375 -6.21875 C -2.039062 -5.769531 -2.195312 -5.269531 -2.0625 -4.71875 C -1.925781 -4.164062 -1.609375 -3.640625 -1.109375 -3.140625 C -0.640625 -2.671875 -0.144531 -2.382812 0.375 -2.28125 C 0.894531 -2.175781 1.378906 -2.347656 1.828125 -2.796875 Z M -2.21875 -6.90625 C -1.65625 -7.46875 -0.984375 -7.753906 -0.203125 -7.765625 C 0.566406 -7.785156 1.320312 -7.425781 2.0625 -6.6875 C 2.78125 -5.96875 3.203125 -5.203125 3.328125 -4.390625 C 3.453125 -3.578125 3.148438 -2.804688 2.421875 -2.078125 C 1.804688 -1.460938 1.109375 -1.179688 0.328125 -1.234375 C -0.441406 -1.296875 -1.175781 -1.675781 -1.875 -2.375 C -2.613281 -3.113281 -3.015625 -3.890625 -3.078125 -4.703125 C -3.148438 -5.523438 -2.863281 -6.257812 -2.21875 -6.90625 Z M -2.234375 -6.859375 Z M -2.234375 -6.859375 "/>
</g>
<g id="glyph-4-7">
<path d="M -3.546875 -5.328125 L 0.8125 -2.6875 L -1.828125 -7.046875 L -0.984375 -7.890625 L 3.34375 -5.28125 L 0.78125 -9.65625 L 1.53125 -10.40625 L 4.6875 -4.6875 L 3.90625 -3.90625 L -0.4375 -6.4375 L 2.125 -2.125 L 1.359375 -1.359375 L -4.359375 -4.515625 Z M -3.546875 -5.328125 "/>
</g>
<g id="glyph-5-0">
<path d="M 0.390625 0 L 0.390625 -8.609375 L 7.21875 -8.609375 L 7.21875 0 Z M 6.140625 -1.078125 L 6.140625 -7.53125 L 1.46875 -7.53125 L 1.46875 -1.078125 Z M 6.140625 -1.078125 "/>
</g>
<g id="glyph-5-1">
<path d="M 1.15625 -5.9375 L 1.15625 -6.75 C 1.914062 -6.820312 2.441406 -6.945312 2.734375 -7.125 C 3.035156 -7.300781 3.265625 -7.710938 3.421875 -8.359375 L 4.25 -8.359375 L 4.25 0 L 3.125 0 L 3.125 -5.9375 Z M 1.15625 -5.9375 "/>
</g>
<g id="glyph-5-2">
<path d="M 3.25 -8.390625 C 4.332031 -8.390625 5.117188 -7.941406 5.609375 -7.046875 C 5.984375 -6.359375 6.171875 -5.410156 6.171875 -4.203125 C 6.171875 -3.066406 6 -2.125 5.65625 -1.375 C 5.164062 -0.300781 4.359375 0.234375 3.234375 0.234375 C 2.234375 0.234375 1.484375 -0.203125 0.984375 -1.078125 C 0.578125 -1.816406 0.375 -2.800781 0.375 -4.03125 C 0.375 -4.976562 0.5 -5.796875 0.75 -6.484375 C 1.207031 -7.753906 2.039062 -8.390625 3.25 -8.390625 Z M 3.234375 -0.734375 C 3.785156 -0.734375 4.222656 -0.972656 4.546875 -1.453125 C 4.867188 -1.941406 5.03125 -2.847656 5.03125 -4.171875 C 5.03125 -5.117188 4.910156 -5.898438 4.671875 -6.515625 C 4.441406 -7.128906 3.988281 -7.4375 3.3125 -7.4375 C 2.6875 -7.4375 2.226562 -7.144531 1.9375 -6.5625 C 1.65625 -5.976562 1.515625 -5.117188 1.515625 -3.984375 C 1.515625 -3.128906 1.609375 -2.441406 1.796875 -1.921875 C 2.078125 -1.128906 2.554688 -0.734375 3.234375 -0.734375 Z M 3.234375 -0.734375 "/>
</g>
<g id="glyph-6-0">
<path d="M 0.46875 0 L 0.46875 -10.328125 L 8.671875 -10.328125 L 8.671875 0 Z M 7.375 -1.296875 L 7.375 -9.046875 L 1.765625 -9.046875 L 1.765625 -1.296875 Z M 7.375 -1.296875 "/>
</g>
<g id="glyph-6-1">
<path d="M 3.171875 -10.328125 L 3.171875 -8.765625 L 4.703125 -9.296875 L 4.984375 -8.515625 L 3.453125 -8.015625 L 4.390625 -6.703125 L 3.703125 -6.203125 L 2.78125 -7.5625 L 1.84375 -6.203125 L 1.125 -6.703125 L 2.09375 -8.015625 L 0.546875 -8.515625 L 0.828125 -9.296875 L 2.34375 -8.75 L 2.34375 -10.328125 Z M 3.171875 -10.328125 "/>
</g>
</g>
<clipPath id="clip-0">
<path clip-rule="nonzero" d="M 148 59.039062 L 153 59.039062 L 153 64 L 148 64 Z M 148 59.039062 "/>
</clipPath>
</defs>
<g fill="rgb(0%, 0%, 0%)" fill-opacity="1">
<use xlink:href="#glyph-0-1" x="7.576172" y="148.800781"/>
</g>
<g fill="rgb(0%, 0%, 0%)" fill-opacity="1">
<use xlink:href="#glyph-1-1" x="10.428711" y="142.800781"/>
</g>
<g fill="rgb(0%, 0%, 0%)" fill-opacity="1">
<use xlink:href="#glyph-1-2" x="10.428711" y="137.800781"/>
</g>
<g fill="rgb(0%, 0%, 0%)" fill-opacity="1">
<use xlink:href="#glyph-1-3" x="10.428711" y="132.800781"/>
</g>
<g fill="rgb(0%, 0%, 0%)" fill-opacity="1">
<use xlink:href="#glyph-1-4" x="10.428711" y="128.800781"/>
</g>
<g fill="rgb(0%, 0%, 0%)" fill-opacity="1">
<use xlink:href="#glyph-1-5" x="10.428711" y="123.800781"/>
</g>
<g fill="rgb(0%, 0%, 0%)" fill-opacity="1">
<use xlink:href="#glyph-2-1" x="7.751953" y="119.800781"/>
</g>
<g fill="rgb(0%, 0%, 0%)" fill-opacity="1">
<use xlink:href="#glyph-3-1" x="8.435547" y="116.800781"/>
</g>
<g fill="rgb(0%, 0%, 0%)" fill-opacity="1">
<use xlink:href="#glyph-2-2" x="7.751953" y="110.800781"/>
</g>
<g fill="rgb(0%, 0%, 0%)" fill-opacity="1">
<use xlink:href="#glyph-2-3" x="7.751953" y="100.800781"/>
</g>
<g fill="rgb(0%, 0%, 0%)" fill-opacity="1">
<use xlink:href="#glyph-3-2" x="8.435547" y="94.800781"/>
</g>
<path fill-rule="nonzero" fill="rgb(100%, 100%, 100%)" fill-opacity="1" stroke-width="1" stroke-linecap="round" stroke-linejoin="round" stroke="rgb(0%, 0%, 0%)" stroke-opacity="1" stroke-miterlimit="10" d="M 70.886719 153.464844 L 88.058594 153.464844 L 88.058594 137.609375 L 70.886719 137.609375 Z M 70.886719 153.464844 "/>
<path fill="none" stroke-width="1" stroke-linecap="round" stroke-linejoin="round" stroke="rgb(0%, 0%, 0%)" stroke-opacity="1" stroke-miterlimit="10" d="M 79.472656 153.464844 L 79.472656 159.71875 "/>
<path fill="none" stroke-width="1" stroke-linecap="round" stroke-linejoin="round" stroke="rgb(0%, 0%, 0%)" stroke-opacity="1" stroke-miterlimit="10" d="M 79.472656 137.609375 L 79.472656 137.609375 "/>
<path fill="none" stroke-width="1" stroke-linecap="round" stroke-linejoin="round" stroke="rgb(0%, 0%, 0%)" stroke-opacity="1" stroke-miterlimit="10" d="M 78.042969 159.71875 L 80.902344 159.71875 "/>
<path fill="none" stroke-width="1" stroke-linecap="round" stroke-linejoin="round" stroke="rgb(0%, 0%, 0%)" stroke-opacity="1" stroke-miterlimit="10" d="M 78.042969 137.609375 L 80.902344 137.609375 "/>
<path fill="none" stroke-width="3" stroke-linecap="round" stroke-linejoin="round" stroke="rgb(0%, 0%, 0%)" stroke-opacity="1" stroke-miterlimit="10" d="M 70.027344 144.339844 L 88.917969 144.339844 "/>
<path fill-rule="nonzero" fill="rgb(100%, 100%, 100%)" fill-opacity="1" stroke-width="1" stroke-linecap="round" stroke-linejoin="round" stroke="rgb(0%, 0%, 0%)" stroke-opacity="1" stroke-miterlimit="10" d="M 99.503906 82.925781 L 116.675781 82.925781 L 116.675781 77.820312 L 99.503906 77.820312 Z M 99.503906 82.925781 "/>
<path fill="none" stroke-width="1" stroke-linecap="round" stroke-linejoin="round" stroke="rgb(0%, 0%, 0%)" stroke-opacity="1" stroke-miterlimit="10" d="M 108.089844 82.925781 L 108.089844 85.363281 "/>
<path fill="none" stroke-width="1" stroke-linecap="round" stroke-linejoin="round" stroke="rgb(0%, 0%, 0%)" stroke-opacity="1" stroke-miterlimit="10" d="M 108.089844 77.820312 L 108.089844 76.914062 "/>
<path fill="none" stroke-width="1" stroke-linecap="round" stroke-linejoin="round" stroke="rgb(0%, 0%, 0%)" stroke-opacity="1" stroke-miterlimit="10" d="M 106.660156 85.363281 L 109.523438 85.363281 "/>
<path fill="none" stroke-width="1" stroke-linecap="round" stroke-linejoin="round" stroke="rgb(0%, 0%, 0%)" stroke-opacity="1" stroke-miterlimit="10" d="M 106.660156 76.914062 L 109.523438 76.914062 "/>
<path fill="none" stroke-width="3" stroke-linecap="round" stroke-linejoin="round" stroke="rgb(0%, 0%, 0%)" stroke-opacity="1" stroke-miterlimit="10" d="M 98.648438 81.101562 L 117.535156 81.101562 "/>
<path fill-rule="nonzero" fill="rgb(100%, 100%, 100%)" fill-opacity="1" stroke-width="1" stroke-linecap="round" stroke-linejoin="round" stroke="rgb(0%, 0%, 0%)" stroke-opacity="1" stroke-miterlimit="10" d="M 128.125 139.542969 L 145.296875 139.542969 L 145.296875 118.160156 L 128.125 118.160156 Z M 128.125 139.542969 "/>
<path fill="none" stroke-width="1" stroke-linecap="round" stroke-linejoin="round" stroke="rgb(0%, 0%, 0%)" stroke-opacity="1" stroke-miterlimit="10" d="M 136.707031 139.542969 L 136.707031 157.75 "/>
<path fill="none" stroke-width="1" stroke-linecap="round" stroke-linejoin="round" stroke="rgb(0%, 0%, 0%)" stroke-opacity="1" stroke-miterlimit="10" d="M 136.707031 118.160156 L 136.707031 113.191406 "/>
<path fill="none" stroke-width="1" stroke-linecap="round" stroke-linejoin="round" stroke="rgb(0%, 0%, 0%)" stroke-opacity="1" stroke-miterlimit="10" d="M 135.277344 157.75 L 138.140625 157.75 "/>
<path fill="none" stroke-width="1" stroke-linecap="round" stroke-linejoin="round" stroke="rgb(0%, 0%, 0%)" stroke-opacity="1" stroke-miterlimit="10" d="M 135.277344 113.191406 L 138.140625 113.191406 "/>
<path fill="none" stroke-width="3" stroke-linecap="round" stroke-linejoin="round" stroke="rgb(0%, 0%, 0%)" stroke-opacity="1" stroke-miterlimit="10" d="M 127.265625 124.832031 L 146.152344 124.832031 "/>
<path fill-rule="nonzero" fill="rgb(100%, 100%, 100%)" fill-opacity="1" stroke-width="1" stroke-linecap="round" stroke-linejoin="round" stroke="rgb(0%, 0%, 0%)" stroke-opacity="1" stroke-miterlimit="10" d="M 156.742188 87.347656 L 173.914062 87.347656 L 173.914062 77.253906 L 156.742188 77.253906 Z M 156.742188 87.347656 "/>
<path fill="none" stroke-width="1" stroke-linecap="round" stroke-linejoin="round" stroke="rgb(0%, 0%, 0%)" stroke-opacity="1" stroke-miterlimit="10" d="M 165.328125 87.347656 L 165.328125 99.125 "/>
<path fill="none" stroke-width="1" stroke-linecap="round" stroke-linejoin="round" stroke="rgb(0%, 0%, 0%)" stroke-opacity="1" stroke-miterlimit="10" d="M 165.328125 77.25 L 165.328125 68.070312 "/>
<path fill="none" stroke-width="1" stroke-linecap="round" stroke-linejoin="round" stroke="rgb(0%, 0%, 0%)" stroke-opacity="1" stroke-miterlimit="10" d="M 163.894531 99.125 L 166.757812 99.125 "/>
<path fill="none" stroke-width="1" stroke-linecap="round" stroke-linejoin="round" stroke="rgb(0%, 0%, 0%)" stroke-opacity="1" stroke-miterlimit="10" d="M 163.894531 68.070312 L 166.757812 68.070312 "/>
<path fill="none" stroke-width="3" stroke-linecap="round" stroke-linejoin="round" stroke="rgb(0%, 0%, 0%)" stroke-opacity="1" stroke-miterlimit="10" d="M 155.882812 81.441406 L 174.769531 81.441406 "/>
<path fill="none" stroke-width="1" stroke-linecap="round" stroke-linejoin="round" stroke="rgb(0%, 0%, 0%)" stroke-opacity="1" stroke-miterlimit="10" d="M 79.472656 178.558594 L 165.328125 178.558594 "/>
<path fill="none" stroke-width="1" stroke-linecap="round" stroke-linejoin="round" stroke="rgb(0%, 0%, 0%)" stroke-opacity="1" stroke-miterlimit="10" d="M 79.472656 178.558594 L 79.472656 181.441406 "/>
<path fill="none" stroke-width="1" stroke-linecap="round" stroke-linejoin="round" stroke="rgb(0%, 0%, 0%)" stroke-opacity="1" stroke-miterlimit="10" d="M 108.089844 178.558594 L 108.089844 181.441406 "/>
<path fill="none" stroke-width="1" stroke-linecap="round" stroke-linejoin="round" stroke="rgb(0%, 0%, 0%)" stroke-opacity="1" stroke-miterlimit="10" d="M 136.707031 178.558594 L 136.707031 181.441406 "/>
<path fill="none" stroke-width="1" stroke-linecap="round" stroke-linejoin="round" stroke="rgb(0%, 0%, 0%)" stroke-opacity="1" stroke-miterlimit="10" d="M 165.328125 178.558594 L 165.328125 181.441406 "/>
<g fill="rgb(0%, 0%, 0%)" fill-opacity="1">
<use xlink:href="#glyph-4-1" x="68.326801" y="206.236957"/>
<use xlink:href="#glyph-4-2" x="70.448121" y="204.115637"/>
<use xlink:href="#glyph-4-3" x="75.397869" y="199.16589"/>
<use xlink:href="#glyph-4-4" x="79.64051" y="194.923249"/>
</g>
<g fill="rgb(0%, 0%, 0%)" fill-opacity="1">
<use xlink:href="#glyph-4-3" x="92.701801" y="210.479145"/>
<use xlink:href="#glyph-4-5" x="96.944442" y="206.236504"/>
<use xlink:href="#glyph-4-6" x="99.065762" y="204.115184"/>
<use xlink:href="#glyph-4-7" x="104.01551" y="199.165436"/>
</g>
<g fill="rgb(0%, 0%, 0%)" fill-opacity="1">
<use xlink:href="#glyph-4-1" x="125.565082" y="206.236957"/>
<use xlink:href="#glyph-4-2" x="127.686403" y="204.115637"/>
<use xlink:href="#glyph-4-3" x="132.63615" y="199.16589"/>
<use xlink:href="#glyph-4-4" x="136.878791" y="194.923249"/>
</g>
<g fill="rgb(0%, 0%, 0%)" fill-opacity="1">
<use xlink:href="#glyph-4-3" x="149.940082" y="210.479145"/>
<use xlink:href="#glyph-4-5" x="154.182723" y="206.236504"/>
<use xlink:href="#glyph-4-6" x="156.304043" y="204.115184"/>
<use xlink:href="#glyph-4-7" x="161.253791" y="199.165436"/>
</g>
<path fill="none" stroke-width="1" stroke-linecap="round" stroke-linejoin="round" stroke="rgb(66.27451%, 66.27451%, 66.27451%)" stroke-opacity="1" stroke-dasharray="1 3" stroke-miterlimit="10" d="M 80.660156 139.078125 L 107.046875 77.820312 "/>
<path fill="none" stroke-width="1" stroke-linecap="round" stroke-linejoin="round" stroke="rgb(66.27451%, 66.27451%, 66.27451%)" stroke-opacity="1" stroke-dasharray="1 3" stroke-miterlimit="10" d="M 80.722656 137.609375 L 108.539062 77.890625 "/>
<path fill="none" stroke-width="1" stroke-linecap="round" stroke-linejoin="round" stroke="rgb(66.27451%, 66.27451%, 66.27451%)" stroke-opacity="1" stroke-dasharray="1 3" stroke-miterlimit="10" d="M 78.859375 144.472656 L 108.679688 81.757812 "/>
<path fill="none" stroke-width="1" stroke-linecap="round" stroke-linejoin="round" stroke="rgb(66.27451%, 66.27451%, 66.27451%)" stroke-opacity="1" stroke-dasharray="1 3" stroke-miterlimit="10" d="M 80.417969 144.339844 L 107.96875 85.363281 "/>
<path fill="none" stroke-width="1" stroke-linecap="round" stroke-linejoin="round" stroke="rgb(66.27451%, 66.27451%, 66.27451%)" stroke-opacity="1" stroke-dasharray="1 3" stroke-miterlimit="10" d="M 79.878906 159.71875 L 108.71875 81.101562 "/>
<path fill="none" stroke-width="1" stroke-linecap="round" stroke-linejoin="round" stroke="rgb(66.27451%, 66.27451%, 66.27451%)" stroke-opacity="1" stroke-dasharray="1 3" stroke-miterlimit="10" d="M 79.527344 109.4375 L 109.335938 82.925781 "/>
<path fill="none" stroke-width="1" stroke-linecap="round" stroke-linejoin="round" stroke="rgb(66.27451%, 66.27451%, 66.27451%)" stroke-opacity="1" stroke-dasharray="1 3" stroke-miterlimit="10" d="M 80.148438 153.464844 L 107.390625 76.914062 "/>
<path fill="none" stroke-width="1" stroke-linecap="round" stroke-linejoin="round" stroke="rgb(66.27451%, 66.27451%, 66.27451%)" stroke-opacity="1" stroke-dasharray="1 3" stroke-miterlimit="10" d="M 136.601562 102.921875 L 164.132812 76.648438 "/>
<path fill="none" stroke-width="1" stroke-linecap="round" stroke-linejoin="round" stroke="rgb(66.27451%, 66.27451%, 66.27451%)" stroke-opacity="1" stroke-dasharray="1 3" stroke-miterlimit="10" d="M 137.96875 113.191406 L 165.367188 68.070312 "/>
<path fill="none" stroke-width="1" stroke-linecap="round" stroke-linejoin="round" stroke="rgb(66.27451%, 66.27451%, 66.27451%)" stroke-opacity="1" stroke-dasharray="1 3" stroke-miterlimit="10" d="M 138.078125 127.339844 L 165.011719 89.140625 "/>
<path fill="none" stroke-width="1" stroke-linecap="round" stroke-linejoin="round" stroke="rgb(66.27451%, 66.27451%, 66.27451%)" stroke-opacity="1" stroke-dasharray="1 3" stroke-miterlimit="10" d="M 135.613281 147.570312 L 166.488281 80.550781 "/>
<path fill="none" stroke-width="1" stroke-linecap="round" stroke-linejoin="round" stroke="rgb(66.27451%, 66.27451%, 66.27451%)" stroke-opacity="1" stroke-dasharray="1 3" stroke-miterlimit="10" d="M 136.636719 125.289062 L 165.175781 86.625 "/>
<path fill="none" stroke-width="1" stroke-linecap="round" stroke-linejoin="round" stroke="rgb(66.27451%, 66.27451%, 66.27451%)" stroke-opacity="1" stroke-dasharray="1 3" stroke-miterlimit="10" d="M 136.882812 124.382812 L 166.289062 86.78125 "/>
<path fill="none" stroke-width="1" stroke-linecap="round" stroke-linejoin="round" stroke="rgb(66.27451%, 66.27451%, 66.27451%)" stroke-opacity="1" stroke-dasharray="1 3" stroke-miterlimit="10" d="M 137.863281 120.121094 L 166.007812 82.371094 "/>
<path fill="none" stroke-width="1" stroke-linecap="round" stroke-linejoin="round" stroke="rgb(66.27451%, 66.27451%, 66.27451%)" stroke-opacity="1" stroke-dasharray="1 3" stroke-miterlimit="10" d="M 135.675781 137.429688 L 166.21875 99.125 "/>
<path fill="none" stroke-width="1" stroke-linecap="round" stroke-linejoin="round" stroke="rgb(66.27451%, 66.27451%, 66.27451%)" stroke-opacity="1" stroke-dasharray="1 3" stroke-miterlimit="10" d="M 138.109375 157.75 L 165.007812 79.410156 "/>
<path fill="none" stroke-width="1" stroke-linecap="round" stroke-linejoin="round" stroke="rgb(66.27451%, 66.27451%, 66.27451%)" stroke-opacity="1" stroke-dasharray="1 3" stroke-miterlimit="10" d="M 137.988281 122.75 L 165.855469 77.457031 "/>
<path fill-rule="nonzero" fill="rgb(66.27451%, 66.27451%, 66.27451%)" fill-opacity="0.6" stroke-width="0.333333" stroke-linecap="round" stroke-linejoin="round" stroke="rgb(66.27451%, 66.27451%, 66.27451%)" stroke-opacity="0.6" stroke-miterlimit="10" d="M 82.28125 139.078125 C 82.28125 141.234375 79.039062 141.234375 79.039062 139.078125 C 79.039062 136.917969 82.28125 136.917969 82.28125 139.078125 "/>
<path fill-rule="nonzero" fill="rgb(66.27451%, 66.27451%, 66.27451%)" fill-opacity="0.6" stroke-width="0.333333" stroke-linecap="round" stroke-linejoin="round" stroke="rgb(66.27451%, 66.27451%, 66.27451%)" stroke-opacity="0.6" stroke-miterlimit="10" d="M 82.34375 137.609375 C 82.34375 139.769531 79.105469 139.769531 79.105469 137.609375 C 79.105469 135.449219 82.34375 135.449219 82.34375 137.609375 "/>
<path fill-rule="nonzero" fill="rgb(66.27451%, 66.27451%, 66.27451%)" fill-opacity="0.6" stroke-width="0.333333" stroke-linecap="round" stroke-linejoin="round" stroke="rgb(66.27451%, 66.27451%, 66.27451%)" stroke-opacity="0.6" stroke-miterlimit="10" d="M 80.480469 144.472656 C 80.480469 146.632812 77.242188 146.632812 77.242188 144.472656 C 77.242188 142.3125 80.480469 142.3125 80.480469 144.472656 "/>
<path fill-rule="nonzero" fill="rgb(66.27451%, 66.27451%, 66.27451%)" fill-opacity="0.6" stroke-width="0.333333" stroke-linecap="round" stroke-linejoin="round" stroke="rgb(66.27451%, 66.27451%, 66.27451%)" stroke-opacity="0.6" stroke-miterlimit="10" d="M 82.039062 144.339844 C 82.039062 146.5 78.800781 146.5 78.800781 144.339844 C 78.800781 142.179688 82.039062 142.179688 82.039062 144.339844 "/>
<path fill-rule="nonzero" fill="rgb(66.27451%, 66.27451%, 66.27451%)" fill-opacity="0.6" stroke-width="0.333333" stroke-linecap="round" stroke-linejoin="round" stroke="rgb(66.27451%, 66.27451%, 66.27451%)" stroke-opacity="0.6" stroke-miterlimit="10" d="M 81.5 159.71875 C 81.5 161.878906 78.257812 161.878906 78.257812 159.71875 C 78.257812 157.558594 81.5 157.558594 81.5 159.71875 "/>
<path fill-rule="nonzero" fill="rgb(66.27451%, 66.27451%, 66.27451%)" fill-opacity="0.6" stroke-width="0.333333" stroke-linecap="round" stroke-linejoin="round" stroke="rgb(66.27451%, 66.27451%, 66.27451%)" stroke-opacity="0.6" stroke-miterlimit="10" d="M 81.148438 109.4375 C 81.148438 111.597656 77.90625 111.597656 77.90625 109.4375 C 77.90625 107.277344 81.148438 107.277344 81.148438 109.4375 "/>
<path fill-rule="nonzero" fill="rgb(66.27451%, 66.27451%, 66.27451%)" fill-opacity="0.6" stroke-width="0.333333" stroke-linecap="round" stroke-linejoin="round" stroke="rgb(66.27451%, 66.27451%, 66.27451%)" stroke-opacity="0.6" stroke-miterlimit="10" d="M 81.769531 153.464844 C 81.769531 155.625 78.53125 155.625 78.53125 153.464844 C 78.53125 151.304688 81.769531 151.304688 81.769531 153.464844 "/>
<path fill-rule="nonzero" fill="rgb(66.27451%, 66.27451%, 66.27451%)" fill-opacity="0.6" stroke-width="0.333333" stroke-linecap="round" stroke-linejoin="round" stroke="rgb(66.27451%, 66.27451%, 66.27451%)" stroke-opacity="0.6" stroke-miterlimit="10" d="M 108.664062 77.820312 C 108.664062 79.980469 105.425781 79.980469 105.425781 77.820312 C 105.425781 75.660156 108.664062 75.660156 108.664062 77.820312 "/>
<path fill-rule="nonzero" fill="rgb(66.27451%, 66.27451%, 66.27451%)" fill-opacity="0.6" stroke-width="0.333333" stroke-linecap="round" stroke-linejoin="round" stroke="rgb(66.27451%, 66.27451%, 66.27451%)" stroke-opacity="0.6" stroke-miterlimit="10" d="M 110.160156 77.890625 C 110.160156 80.050781 106.921875 80.050781 106.921875 77.890625 C 106.921875 75.730469 110.160156 75.730469 110.160156 77.890625 "/>
<path fill-rule="nonzero" fill="rgb(66.27451%, 66.27451%, 66.27451%)" fill-opacity="0.6" stroke-width="0.333333" stroke-linecap="round" stroke-linejoin="round" stroke="rgb(66.27451%, 66.27451%, 66.27451%)" stroke-opacity="0.6" stroke-miterlimit="10" d="M 110.296875 81.757812 C 110.296875 83.917969 107.058594 83.917969 107.058594 81.757812 C 107.058594 79.597656 110.296875 79.597656 110.296875 81.757812 "/>
<path fill-rule="nonzero" fill="rgb(66.27451%, 66.27451%, 66.27451%)" fill-opacity="0.6" stroke-width="0.333333" stroke-linecap="round" stroke-linejoin="round" stroke="rgb(66.27451%, 66.27451%, 66.27451%)" stroke-opacity="0.6" stroke-miterlimit="10" d="M 109.589844 85.363281 C 109.589844 87.519531 106.351562 87.519531 106.351562 85.363281 C 106.351562 83.203125 109.589844 83.203125 109.589844 85.363281 "/>
<path fill-rule="nonzero" fill="rgb(66.27451%, 66.27451%, 66.27451%)" fill-opacity="0.6" stroke-width="0.333333" stroke-linecap="round" stroke-linejoin="round" stroke="rgb(66.27451%, 66.27451%, 66.27451%)" stroke-opacity="0.6" stroke-miterlimit="10" d="M 110.339844 81.101562 C 110.339844 83.257812 107.097656 83.257812 107.097656 81.101562 C 107.097656 78.941406 110.339844 78.941406 110.339844 81.101562 "/>
<path fill-rule="nonzero" fill="rgb(66.27451%, 66.27451%, 66.27451%)" fill-opacity="0.6" stroke-width="0.333333" stroke-linecap="round" stroke-linejoin="round" stroke="rgb(66.27451%, 66.27451%, 66.27451%)" stroke-opacity="0.6" stroke-miterlimit="10" d="M 110.953125 82.925781 C 110.953125 85.085938 107.714844 85.085938 107.714844 82.925781 C 107.714844 80.765625 110.953125 80.765625 110.953125 82.925781 "/>
<path fill-rule="nonzero" fill="rgb(66.27451%, 66.27451%, 66.27451%)" fill-opacity="0.6" stroke-width="0.333333" stroke-linecap="round" stroke-linejoin="round" stroke="rgb(66.27451%, 66.27451%, 66.27451%)" stroke-opacity="0.6" stroke-miterlimit="10" d="M 109.011719 76.914062 C 109.011719 79.074219 105.769531 79.074219 105.769531 76.914062 C 105.769531 74.753906 109.011719 74.753906 109.011719 76.914062 "/>
<path fill-rule="nonzero" fill="rgb(66.27451%, 66.27451%, 66.27451%)" fill-opacity="0.6" stroke-width="0.333333" stroke-linecap="round" stroke-linejoin="round" stroke="rgb(66.27451%, 66.27451%, 66.27451%)" stroke-opacity="0.6" stroke-miterlimit="10" d="M 138.222656 102.921875 C 138.222656 105.082031 134.980469 105.082031 134.980469 102.921875 C 134.980469 100.761719 138.222656 100.761719 138.222656 102.921875 "/>
<path fill-rule="nonzero" fill="rgb(66.27451%, 66.27451%, 66.27451%)" fill-opacity="0.6" stroke-width="0.333333" stroke-linecap="round" stroke-linejoin="round" stroke="rgb(66.27451%, 66.27451%, 66.27451%)" stroke-opacity="0.6" stroke-miterlimit="10" d="M 139.589844 113.191406 C 139.589844 115.351562 136.347656 115.351562 136.347656 113.191406 C 136.347656 111.03125 139.589844 111.03125 139.589844 113.191406 "/>
<path fill-rule="nonzero" fill="rgb(66.27451%, 66.27451%, 66.27451%)" fill-opacity="0.6" stroke-width="0.333333" stroke-linecap="round" stroke-linejoin="round" stroke="rgb(66.27451%, 66.27451%, 66.27451%)" stroke-opacity="0.6" stroke-miterlimit="10" d="M 139.699219 127.339844 C 139.699219 129.5 136.457031 129.5 136.457031 127.339844 C 136.457031 125.179688 139.699219 125.179688 139.699219 127.339844 "/>
<path fill-rule="nonzero" fill="rgb(66.27451%, 66.27451%, 66.27451%)" fill-opacity="0.6" stroke-width="0.333333" stroke-linecap="round" stroke-linejoin="round" stroke="rgb(66.27451%, 66.27451%, 66.27451%)" stroke-opacity="0.6" stroke-miterlimit="10" d="M 137.234375 147.570312 C 137.234375 149.730469 133.996094 149.730469 133.996094 147.570312 C 133.996094 145.410156 137.234375 145.410156 137.234375 147.570312 "/>
<path fill-rule="nonzero" fill="rgb(66.27451%, 66.27451%, 66.27451%)" fill-opacity="0.6" stroke-width="0.333333" stroke-linecap="round" stroke-linejoin="round" stroke="rgb(66.27451%, 66.27451%, 66.27451%)" stroke-opacity="0.6" stroke-miterlimit="10" d="M 138.257812 125.289062 C 138.257812 127.449219 135.015625 127.449219 135.015625 125.289062 C 135.015625 123.128906 138.257812 123.128906 138.257812 125.289062 "/>
<path fill-rule="nonzero" fill="rgb(66.27451%, 66.27451%, 66.27451%)" fill-opacity="0.6" stroke-width="0.333333" stroke-linecap="round" stroke-linejoin="round" stroke="rgb(66.27451%, 66.27451%, 66.27451%)" stroke-opacity="0.6" stroke-miterlimit="10" d="M 138.5 124.382812 C 138.5 126.542969 135.261719 126.542969 135.261719 124.382812 C 135.261719 122.222656 138.5 122.222656 138.5 124.382812 "/>
<path fill-rule="nonzero" fill="rgb(66.27451%, 66.27451%, 66.27451%)" fill-opacity="0.6" stroke-width="0.333333" stroke-linecap="round" stroke-linejoin="round" stroke="rgb(66.27451%, 66.27451%, 66.27451%)" stroke-opacity="0.6" stroke-miterlimit="10" d="M 139.484375 120.121094 C 139.484375 122.28125 136.246094 122.28125 136.246094 120.121094 C 136.246094 117.960938 139.484375 117.960938 139.484375 120.121094 "/>
<path fill-rule="nonzero" fill="rgb(66.27451%, 66.27451%, 66.27451%)" fill-opacity="0.6" stroke-width="0.333333" stroke-linecap="round" stroke-linejoin="round" stroke="rgb(66.27451%, 66.27451%, 66.27451%)" stroke-opacity="0.6" stroke-miterlimit="10" d="M 137.296875 137.429688 C 137.296875 139.589844 134.054688 139.589844 134.054688 137.429688 C 134.054688 135.269531 137.296875 135.269531 137.296875 137.429688 "/>
<path fill-rule="nonzero" fill="rgb(66.27451%, 66.27451%, 66.27451%)" fill-opacity="0.6" stroke-width="0.333333" stroke-linecap="round" stroke-linejoin="round" stroke="rgb(66.27451%, 66.27451%, 66.27451%)" stroke-opacity="0.6" stroke-miterlimit="10" d="M 139.726562 157.75 C 139.726562 159.910156 136.488281 159.910156 136.488281 157.75 C 136.488281 155.589844 139.726562 155.589844 139.726562 157.75 "/>
<path fill-rule="nonzero" fill="rgb(66.27451%, 66.27451%, 66.27451%)" fill-opacity="0.6" stroke-width="0.333333" stroke-linecap="round" stroke-linejoin="round" stroke="rgb(66.27451%, 66.27451%, 66.27451%)" stroke-opacity="0.6" stroke-miterlimit="10" d="M 139.605469 122.75 C 139.605469 124.910156 136.367188 124.910156 136.367188 122.75 C 136.367188 120.589844 139.605469 120.589844 139.605469 122.75 "/>
<path fill-rule="nonzero" fill="rgb(66.27451%, 66.27451%, 66.27451%)" fill-opacity="0.6" stroke-width="0.333333" stroke-linecap="round" stroke-linejoin="round" stroke="rgb(66.27451%, 66.27451%, 66.27451%)" stroke-opacity="0.6" stroke-miterlimit="10" d="M 165.75 76.648438 C 165.75 78.808594 162.511719 78.808594 162.511719 76.648438 C 162.511719 74.488281 165.75 74.488281 165.75 76.648438 "/>
<path fill-rule="nonzero" fill="rgb(66.27451%, 66.27451%, 66.27451%)" fill-opacity="0.6" stroke-width="0.333333" stroke-linecap="round" stroke-linejoin="round" stroke="rgb(66.27451%, 66.27451%, 66.27451%)" stroke-opacity="0.6" stroke-miterlimit="10" d="M 166.988281 68.070312 C 166.988281 70.230469 163.746094 70.230469 163.746094 68.070312 C 163.746094 65.910156 166.988281 65.910156 166.988281 68.070312 "/>
<path fill-rule="nonzero" fill="rgb(66.27451%, 66.27451%, 66.27451%)" fill-opacity="0.6" stroke-width="0.333333" stroke-linecap="round" stroke-linejoin="round" stroke="rgb(66.27451%, 66.27451%, 66.27451%)" stroke-opacity="0.6" stroke-miterlimit="10" d="M 166.632812 89.140625 C 166.632812 91.300781 163.394531 91.300781 163.394531 89.140625 C 163.394531 86.980469 166.632812 86.980469 166.632812 89.140625 "/>
<path fill-rule="nonzero" fill="rgb(66.27451%, 66.27451%, 66.27451%)" fill-opacity="0.6" stroke-width="0.333333" stroke-linecap="round" stroke-linejoin="round" stroke="rgb(66.27451%, 66.27451%, 66.27451%)" stroke-opacity="0.6" stroke-miterlimit="10" d="M 168.109375 80.550781 C 168.109375 82.710938 164.867188 82.710938 164.867188 80.550781 C 164.867188 78.390625 168.109375 78.390625 168.109375 80.550781 "/>
<path fill-rule="nonzero" fill="rgb(66.27451%, 66.27451%, 66.27451%)" fill-opacity="0.6" stroke-width="0.333333" stroke-linecap="round" stroke-linejoin="round" stroke="rgb(66.27451%, 66.27451%, 66.27451%)" stroke-opacity="0.6" stroke-miterlimit="10" d="M 166.796875 86.625 C 166.796875 88.785156 163.554688 88.785156 163.554688 86.625 C 163.554688 84.464844 166.796875 84.464844 166.796875 86.625 "/>
<path fill-rule="nonzero" fill="rgb(66.27451%, 66.27451%, 66.27451%)" fill-opacity="0.6" stroke-width="0.333333" stroke-linecap="round" stroke-linejoin="round" stroke="rgb(66.27451%, 66.27451%, 66.27451%)" stroke-opacity="0.6" stroke-miterlimit="10" d="M 167.910156 86.78125 C 167.910156 88.941406 164.667969 88.941406 164.667969 86.78125 C 164.667969 84.621094 167.910156 84.621094 167.910156 86.78125 "/>
<path fill-rule="nonzero" fill="rgb(66.27451%, 66.27451%, 66.27451%)" fill-opacity="0.6" stroke-width="0.333333" stroke-linecap="round" stroke-linejoin="round" stroke="rgb(66.27451%, 66.27451%, 66.27451%)" stroke-opacity="0.6" stroke-miterlimit="10" d="M 167.625 82.371094 C 167.625 84.53125 164.386719 84.53125 164.386719 82.371094 C 164.386719 80.210938 167.625 80.210938 167.625 82.371094 "/>
<path fill-rule="nonzero" fill="rgb(66.27451%, 66.27451%, 66.27451%)" fill-opacity="0.6" stroke-width="0.333333" stroke-linecap="round" stroke-linejoin="round" stroke="rgb(66.27451%, 66.27451%, 66.27451%)" stroke-opacity="0.6" stroke-miterlimit="10" d="M 167.835938 99.125 C 167.835938 101.285156 164.597656 101.285156 164.597656 99.125 C 164.597656 96.964844 167.835938 96.964844 167.835938 99.125 "/>
<path fill-rule="nonzero" fill="rgb(66.27451%, 66.27451%, 66.27451%)" fill-opacity="0.6" stroke-width="0.333333" stroke-linecap="round" stroke-linejoin="round" stroke="rgb(66.27451%, 66.27451%, 66.27451%)" stroke-opacity="0.6" stroke-miterlimit="10" d="M 166.625 79.410156 C 166.625 81.570312 163.386719 81.570312 163.386719 79.410156 C 163.386719 77.25 166.625 77.25 166.625 79.410156 "/>
<path fill-rule="nonzero" fill="rgb(66.27451%, 66.27451%, 66.27451%)" fill-opacity="0.6" stroke-width="0.333333" stroke-linecap="round" stroke-linejoin="round" stroke="rgb(66.27451%, 66.27451%, 66.27451%)" stroke-opacity="0.6" stroke-miterlimit="10" d="M 167.476562 77.457031 C 167.476562 79.617188 164.238281 79.617188 164.238281 77.457031 C 164.238281 75.296875 167.476562 75.296875 167.476562 77.457031 "/>
<path fill="none" stroke-width="0.75" stroke-linecap="round" stroke-linejoin="round" stroke="rgb(0%, 0%, 0%)" stroke-opacity="1" stroke-miterlimit="10" d="M 59.039062 174.132812 L 59.039062 59.039062 "/>
<path fill="none" stroke-width="0.75" stroke-linecap="round" stroke-linejoin="round" stroke="rgb(0%, 0%, 0%)" stroke-opacity="1" stroke-miterlimit="10" d="M 59.039062 174.132812 L 56.160156 174.132812 "/>
<path fill="none" stroke-width="0.75" stroke-linecap="round" stroke-linejoin="round" stroke="rgb(0%, 0%, 0%)" stroke-opacity="1" stroke-miterlimit="10" d="M 59.039062 126.039062 L 56.160156 126.039062 "/>
<path fill="none" stroke-width="0.75" stroke-linecap="round" stroke-linejoin="round" stroke="rgb(0%, 0%, 0%)" stroke-opacity="1" stroke-miterlimit="10" d="M 59.039062 77.945312 L 56.160156 77.945312 "/>
<g fill="rgb(0%, 0%, 0%)" fill-opacity="1">
<use xlink:href="#glyph-5-1" x="37.640625" y="177.873047"/>
</g>
<g fill="rgb(0%, 0%, 0%)" fill-opacity="1">
<use xlink:href="#glyph-5-1" x="30.640625" y="129.779297"/>
<use xlink:href="#glyph-5-2" x="37.640625" y="129.779297"/>
</g>
<g fill="rgb(0%, 0%, 0%)" fill-opacity="1">
<use xlink:href="#glyph-5-1" x="23.640625" y="81.685547"/>
<use xlink:href="#glyph-5-2" x="30.640625" y="81.685547"/>
<use xlink:href="#glyph-5-2" x="37.640625" y="81.685547"/>
</g>
<path fill="none" stroke-width="0.75" stroke-linecap="round" stroke-linejoin="round" stroke="rgb(0%, 0%, 0%)" stroke-opacity="1" stroke-miterlimit="10" d="M 59.039062 159.65625 L 59.039062 63.464844 "/>
<path fill="none" stroke-width="0.75" stroke-linecap="round" stroke-linejoin="round" stroke="rgb(0%, 0%, 0%)" stroke-opacity="1" stroke-miterlimit="10" d="M 59.039062 159.65625 L 57.601562 159.65625 "/>
<path fill="none" stroke-width="0.75" stroke-linecap="round" stroke-linejoin="round" stroke="rgb(0%, 0%, 0%)" stroke-opacity="1" stroke-miterlimit="10" d="M 59.039062 151.1875 L 57.601562 151.1875 "/>
<path fill="none" stroke-width="0.75" stroke-linecap="round" stroke-linejoin="round" stroke="rgb(0%, 0%, 0%)" stroke-opacity="1" stroke-miterlimit="10" d="M 59.039062 145.175781 L 57.601562 145.175781 "/>
<path fill="none" stroke-width="0.75" stroke-linecap="round" stroke-linejoin="round" stroke="rgb(0%, 0%, 0%)" stroke-opacity="1" stroke-miterlimit="10" d="M 59.039062 140.515625 L 57.601562 140.515625 "/>
<path fill="none" stroke-width="0.75" stroke-linecap="round" stroke-linejoin="round" stroke="rgb(0%, 0%, 0%)" stroke-opacity="1" stroke-miterlimit="10" d="M 59.039062 136.707031 L 57.601562 136.707031 "/>
<path fill="none" stroke-width="0.75" stroke-linecap="round" stroke-linejoin="round" stroke="rgb(0%, 0%, 0%)" stroke-opacity="1" stroke-miterlimit="10" d="M 59.039062 133.488281 L 57.601562 133.488281 "/>
<path fill="none" stroke-width="0.75" stroke-linecap="round" stroke-linejoin="round" stroke="rgb(0%, 0%, 0%)" stroke-opacity="1" stroke-miterlimit="10" d="M 59.039062 130.699219 L 57.601562 130.699219 "/>
<path fill="none" stroke-width="0.75" stroke-linecap="round" stroke-linejoin="round" stroke="rgb(0%, 0%, 0%)" stroke-opacity="1" stroke-miterlimit="10" d="M 59.039062 128.238281 L 57.601562 128.238281 "/>
<path fill="none" stroke-width="0.75" stroke-linecap="round" stroke-linejoin="round" stroke="rgb(0%, 0%, 0%)" stroke-opacity="1" stroke-miterlimit="10" d="M 59.039062 111.5625 L 57.601562 111.5625 "/>
<path fill="none" stroke-width="0.75" stroke-linecap="round" stroke-linejoin="round" stroke="rgb(0%, 0%, 0%)" stroke-opacity="1" stroke-miterlimit="10" d="M 59.039062 103.09375 L 57.601562 103.09375 "/>
<path fill="none" stroke-width="0.75" stroke-linecap="round" stroke-linejoin="round" stroke="rgb(0%, 0%, 0%)" stroke-opacity="1" stroke-miterlimit="10" d="M 59.039062 97.082031 L 57.601562 97.082031 "/>
<path fill="none" stroke-width="0.75" stroke-linecap="round" stroke-linejoin="round" stroke="rgb(0%, 0%, 0%)" stroke-opacity="1" stroke-miterlimit="10" d="M 59.039062 92.421875 L 57.601562 92.421875 "/>
<path fill="none" stroke-width="0.75" stroke-linecap="round" stroke-linejoin="round" stroke="rgb(0%, 0%, 0%)" stroke-opacity="1" stroke-miterlimit="10" d="M 59.039062 88.613281 L 57.601562 88.613281 "/>
<path fill="none" stroke-width="0.75" stroke-linecap="round" stroke-linejoin="round" stroke="rgb(0%, 0%, 0%)" stroke-opacity="1" stroke-miterlimit="10" d="M 59.039062 85.394531 L 57.601562 85.394531 "/>
<path fill="none" stroke-width="0.75" stroke-linecap="round" stroke-linejoin="round" stroke="rgb(0%, 0%, 0%)" stroke-opacity="1" stroke-miterlimit="10" d="M 59.039062 82.605469 L 57.601562 82.605469 "/>
<path fill="none" stroke-width="0.75" stroke-linecap="round" stroke-linejoin="round" stroke="rgb(0%, 0%, 0%)" stroke-opacity="1" stroke-miterlimit="10" d="M 59.039062 80.144531 L 57.601562 80.144531 "/>
<path fill="none" stroke-width="0.75" stroke-linecap="round" stroke-linejoin="round" stroke="rgb(0%, 0%, 0%)" stroke-opacity="1" stroke-miterlimit="10" d="M 59.039062 63.464844 L 57.601562 63.464844 "/>
<path fill="none" stroke-width="1" stroke-linecap="round" stroke-linejoin="round" stroke="rgb(0%, 0%, 0%)" stroke-opacity="1" stroke-miterlimit="10" d="M 79.472656 72.332031 L 79.472656 73.476562 "/>
<path fill="none" stroke-width="1" stroke-linecap="round" stroke-linejoin="round" stroke="rgb(0%, 0%, 0%)" stroke-opacity="1" stroke-miterlimit="10" d="M 108.089844 72.332031 L 108.089844 73.476562 "/>
<path fill="none" stroke-width="1" stroke-linecap="round" stroke-linejoin="round" stroke="rgb(0%, 0%, 0%)" stroke-opacity="1" stroke-miterlimit="10" d="M 79.472656 72.332031 L 108.089844 72.332031 "/>
<g fill="rgb(0%, 0%, 0%)" fill-opacity="1">
<use xlink:href="#glyph-6-1" x="90.78125" y="78.771484"/>
</g>
<path fill="none" stroke-width="1" stroke-linecap="round" stroke-linejoin="round" stroke="rgb(0%, 0%, 0%)" stroke-opacity="1" stroke-miterlimit="10" d="M 136.707031 63.488281 L 136.707031 64.632812 "/>
<path fill="none" stroke-width="1" stroke-linecap="round" stroke-linejoin="round" stroke="rgb(0%, 0%, 0%)" stroke-opacity="1" stroke-miterlimit="10" d="M 165.328125 63.488281 L 165.328125 64.632812 "/>
<path fill="none" stroke-width="1" stroke-linecap="round" stroke-linejoin="round" stroke="rgb(0%, 0%, 0%)" stroke-opacity="1" stroke-miterlimit="10" d="M 136.707031 63.488281 L 165.328125 63.488281 "/>
<g clip-path="url(#clip-0)">
<g fill="rgb(0%, 0%, 0%)" fill-opacity="1">
<use xlink:href="#glyph-6-1" x="148.019531" y="69.931641"/>
</g>
</g>
</svg>
